<svg width="319" height="265" viewBox="0 0 319 265" fill="none" xmlns="http://www.w3.org/2000/svg">
<g clip-path="url(#clip0_133_609)">
<path d="M266.625 247.315L59.339 203.612C56.1867 202.944 53.4284 201.051 51.6694 198.35C49.9103 195.648 49.2942 192.357 49.956 189.201L73.3052 78.4525C73.9741 75.2971 75.8662 72.5356 78.5663 70.7739C81.2664 69.0122 84.554 68.3942 87.7078 69.0554L294.994 112.758C298.146 113.426 300.905 115.319 302.664 118.021C304.423 120.722 305.039 124.013 304.377 127.17L281.028 237.918C280.359 241.073 278.467 243.835 275.767 245.596C273.067 247.358 269.779 247.976 266.625 247.315Z" fill="white"/>
<path d="M266.625 247.315L59.339 203.612C56.1867 202.944 53.4284 201.051 51.6694 198.35C49.9103 195.648 49.2942 192.357 49.956 189.201L73.3052 78.4525C73.9741 75.2971 75.8662 72.5356 78.5663 70.7739C81.2664 69.0122 84.554 68.3942 87.7078 69.0554L294.994 112.758C298.146 113.426 300.905 115.319 302.664 118.021C304.423 120.722 305.039 124.013 304.377 127.17L281.028 237.918C280.359 241.073 278.467 243.835 275.767 245.596C273.067 247.358 269.779 247.976 266.625 247.315ZM87.5557 69.7768C84.593 69.1557 81.5047 69.7363 78.9682 71.3912C76.4318 73.0462 74.6544 75.6403 74.0259 78.6045L50.6768 189.353C50.0551 192.318 50.6339 195.409 52.2863 197.947C53.9388 200.485 56.5299 202.263 59.4911 202.891L266.777 246.593C269.74 247.214 272.828 246.634 275.365 244.979C277.901 243.324 279.679 240.73 280.307 237.766L303.656 127.018C304.278 124.052 303.699 120.961 302.047 118.423C300.394 115.885 297.803 114.107 294.842 113.479L87.5557 69.7768Z" fill="#FFF6CC"/>
<path d="M268.45 238.657L61.1643 194.955C60.3046 194.772 59.5524 194.256 59.0726 193.519C58.5929 192.782 58.4248 191.885 58.6053 191.024L81.9545 80.276C82.1369 79.4154 82.653 78.6623 83.3893 78.1818C84.1257 77.7014 85.0223 77.5328 85.8825 77.7131L293.169 121.416C294.028 121.598 294.781 122.114 295.26 122.851C295.74 123.588 295.908 124.485 295.728 125.346L272.378 236.094C272.196 236.955 271.68 237.708 270.944 238.188C270.207 238.669 269.311 238.837 268.45 238.657ZM85.7304 78.4346C85.0614 78.2944 84.364 78.4255 83.7913 78.7991C83.2185 79.1728 82.8172 79.7586 82.6753 80.4279L59.3261 191.176C59.1857 191.846 59.3164 192.544 59.6895 193.117C60.0627 193.69 60.6478 194.091 61.3164 194.233L268.603 237.935C269.272 238.076 269.969 237.945 270.542 237.571C271.114 237.197 271.516 236.611 271.658 235.942L295.007 125.194C295.147 124.524 295.017 123.826 294.643 123.253C294.27 122.68 293.685 122.279 293.017 122.137L85.7304 78.4346Z" fill="#FFF6CC"/>
<path d="M215.583 228.062L26.4255 132.653C23.5498 131.198 21.3684 128.661 20.36 125.598C19.3515 122.535 19.5983 119.197 21.0462 116.314L71.9652 15.2406C73.4195 12.3618 75.9552 10.1774 79.0159 9.16685C82.0766 8.15626 85.4123 8.40194 88.2912 9.84998L277.448 105.259C280.324 106.713 282.505 109.25 283.514 112.313C284.522 115.376 284.275 118.715 282.828 121.597L231.909 222.671C230.454 225.55 227.919 227.734 224.858 228.745C221.797 229.756 218.461 229.51 215.583 228.062Z" fill="#FFF6CC"/>
<path d="M215.583 228.062L26.4255 132.653C23.5498 131.198 21.3684 128.661 20.36 125.598C19.3515 122.535 19.5983 119.197 21.0462 116.314L71.9652 15.2406C73.4195 12.3618 75.9552 10.1774 79.0159 9.16685C82.0766 8.15626 85.4123 8.40194 88.2912 9.84998L277.448 105.259C280.324 106.713 282.505 109.25 283.514 112.313C284.522 115.376 284.275 118.715 282.828 121.597L231.909 222.671C230.454 225.55 227.919 227.734 224.858 228.745C221.797 229.756 218.461 229.51 215.583 228.062ZM87.9595 10.5084C85.255 9.14817 82.1215 8.91739 79.2463 9.86673C76.3711 10.8161 73.9891 12.868 72.6229 15.5724L21.7039 116.646C20.3438 119.354 20.112 122.49 21.0593 125.367C22.0067 128.245 24.0558 130.628 26.7572 131.995L215.914 227.403C218.619 228.764 221.752 228.994 224.627 228.045C227.503 227.096 229.885 225.044 231.251 222.339L282.17 121.266C283.53 118.558 283.762 115.422 282.814 112.544C281.867 109.667 279.818 107.284 277.117 105.917L87.9595 10.5084Z" fill="#D2D2D2"/>
<path d="M219.563 220.16L30.4061 124.751C29.6218 124.355 29.0269 123.663 28.7519 122.827C28.4768 121.992 28.5441 121.082 28.939 120.295L79.858 19.2217C80.2546 18.4365 80.9462 17.8408 81.7809 17.5652C82.6156 17.2896 83.5254 17.3566 84.3105 17.7515L273.468 113.16C274.252 113.557 274.847 114.249 275.122 115.084C275.397 115.92 275.33 116.83 274.935 117.616L224.016 218.69C223.619 219.475 222.928 220.071 222.093 220.347C221.258 220.622 220.348 220.555 219.563 220.16ZM83.9788 18.41C83.3681 18.1028 82.6606 18.0507 82.0113 18.265C81.3621 18.4794 80.8242 18.9427 80.5157 19.5534L29.5967 120.627C29.2896 121.239 29.2372 121.947 29.4512 122.597C29.6651 123.246 30.1278 123.784 30.7378 124.093L219.895 219.502C220.506 219.809 221.213 219.861 221.862 219.647C222.512 219.432 223.049 218.969 223.358 218.358L274.277 117.285C274.584 116.673 274.636 115.965 274.423 115.315C274.209 114.665 273.746 114.127 273.136 113.819L83.9788 18.41Z" fill="white"/>
<path d="M219.179 252.76L11.8929 209.057C8.74052 208.389 5.98226 206.496 4.22322 203.794C2.46417 201.092 1.84799 197.802 2.50985 194.645L25.859 83.8972C26.528 80.7418 28.4201 77.9803 31.1202 76.2186C33.8203 74.4569 37.1078 73.8389 40.2617 74.5001L247.548 118.202C250.7 118.871 253.458 120.763 255.217 123.465C256.976 126.167 257.593 129.457 256.931 132.614L233.582 243.362C232.913 246.518 231.021 249.279 228.321 251.041C225.62 252.803 222.333 253.421 219.179 252.76Z" fill="white"/>
<path d="M164.839 231.507L30.9796 203.285C30.8118 203.25 30.6453 203.211 30.4821 203.167L101.316 180.825C102.668 180.385 105.424 180.711 107.472 181.553C108.037 181.766 108.564 182.07 109.032 182.451L146.471 215.36L148.265 216.935L164.839 231.507Z" fill="#D2D2D2"/>
<path d="M207.07 240.41L91.2927 216.001L115.964 210.125L117.74 209.701L149.889 202.043C151.997 201.542 156.62 202.457 158.706 203.724C158.846 203.81 158.974 203.896 159.091 203.983L207.07 240.41Z" fill="#D2D2D2"/>
<path d="M40.1096 75.2216C37.1469 74.6005 34.0585 75.1811 31.5221 76.836C28.9856 78.491 27.2082 81.0851 26.5798 84.0492L3.23062 194.797C2.60889 197.763 3.18773 200.854 4.84017 203.392C6.49261 205.93 9.08368 207.708 12.045 208.336L219.331 252.038C222.294 252.659 225.382 252.079 227.919 250.424C230.455 248.769 232.232 246.175 232.861 243.211L256.21 132.462C256.832 129.497 256.253 126.406 254.601 123.868C252.948 121.33 250.357 119.552 247.396 118.924L40.1096 75.2216Z" fill="#3F3D56"/>
<path d="M221.004 244.102L13.7182 200.399C12.8584 200.217 12.1062 199.701 11.6265 198.964C11.1467 198.227 10.9787 197.33 11.1592 196.469L34.5083 85.7208C34.6908 84.8602 35.2068 84.1071 35.9432 83.6267C36.6796 83.1462 37.5762 82.9776 38.4363 83.158L245.722 126.86C246.582 127.043 247.334 127.559 247.814 128.296C248.294 129.033 248.462 129.93 248.281 130.791L224.932 241.539C224.75 242.399 224.234 243.153 223.497 243.633C222.761 244.114 221.864 244.282 221.004 244.102ZM38.2842 83.8794C37.6152 83.7392 36.9178 83.8703 36.3451 84.244C35.7723 84.6177 35.371 85.2034 35.2291 85.8728L11.8799 196.621C11.7395 197.29 11.8702 197.988 12.2434 198.562C12.6165 199.135 13.2016 199.536 13.8703 199.678L221.156 243.38C221.825 243.521 222.523 243.389 223.096 243.016C223.668 242.642 224.07 242.056 224.212 241.387L247.561 130.639C247.701 129.969 247.57 129.271 247.197 128.698C246.824 128.125 246.239 127.724 245.57 127.582L38.2842 83.8794Z" fill="#D2D2D2"/>
<path d="M195.263 137.394C207.584 139.992 219.68 132.1 222.28 119.767C224.88 107.434 217 95.3298 204.679 92.7322C192.358 90.1345 180.262 98.0267 177.661 110.36C175.061 122.693 182.941 134.797 195.263 137.394Z" fill="#FF6584"/>
<path d="M192.156 198.333C207.761 201.623 223.753 188.44 227.875 168.888C231.998 149.336 222.689 130.818 207.084 127.528C191.479 124.238 175.486 137.421 171.364 156.973C167.242 176.526 176.551 195.043 192.156 198.333Z" fill="#FFF6CC"/>
<path d="M201.199 155.828L201.276 155.844L185.767 236.327L182.817 235.705L201.199 155.828Z" fill="#D2D2D2"/>
<path d="M194.825 209.931C194.877 210.113 194.854 210.309 194.762 210.474C194.67 210.64 194.516 210.762 194.334 210.814L189.831 212.095L189.441 210.72L193.944 209.439C194.126 209.387 194.321 209.41 194.486 209.502C194.652 209.594 194.774 209.749 194.825 209.931Z" fill="#D2D2D2"/>
<path d="M110.922 181.206C126.527 184.496 142.519 171.313 146.641 151.761C150.764 132.209 141.455 113.692 125.85 110.402C110.244 107.112 94.2523 120.295 90.1301 139.847C86.0079 159.399 95.3167 177.916 110.922 181.206Z" fill="#FFF6CC"/>
<path d="M113.312 194.13C113.26 193.948 113.138 193.794 112.973 193.701C112.807 193.609 112.612 193.586 112.43 193.638L109.286 194.533L120.042 138.718L119.964 138.701L101.583 218.578L104.533 219.2L108.984 196.105L112.82 195.013C113.002 194.961 113.156 194.839 113.248 194.673C113.341 194.508 113.364 194.312 113.312 194.13Z" fill="#D2D2D2"/>
<path d="M176.105 72.7602C195.879 76.929 204.088 117.612 198.865 142.387C193.641 167.161 173.377 183.866 153.604 179.697C133.831 175.528 122.035 152.064 127.259 127.29C132.482 102.515 156.332 68.5913 176.105 72.7602Z" fill="#FFD100"/>
<path d="M156.708 195.712C156.676 195.597 156.621 195.491 156.548 195.397C156.474 195.304 156.383 195.226 156.279 195.169C156.175 195.111 156.061 195.074 155.943 195.06C155.825 195.046 155.705 195.056 155.591 195.089L151.608 196.222L165.236 125.498L165.138 125.478L141.847 226.69L145.585 227.478L151.224 198.214L156.085 196.831C156.199 196.798 156.306 196.743 156.399 196.67C156.493 196.596 156.57 196.504 156.628 196.4C156.686 196.296 156.723 196.182 156.737 196.064C156.75 195.946 156.741 195.826 156.708 195.712Z" fill="#3F3D56"/>
<path d="M220.052 252.19L12.7657 208.488C9.61338 207.819 6.85513 205.927 5.09608 203.225C3.33703 200.523 2.72085 197.233 3.38271 194.076L26.7319 83.3277C27.4008 80.1723 29.2929 77.4108 31.993 75.6491C34.6931 73.8874 37.9807 73.2694 41.1345 73.9306L248.421 117.633C251.573 118.301 254.331 120.194 256.09 122.896C257.849 125.598 258.466 128.888 257.804 132.045L234.455 242.793C233.786 245.948 231.893 248.71 229.193 250.472C226.493 252.233 223.206 252.851 220.052 252.19Z" fill="white"/>
<path d="M165.712 230.937L31.8524 202.716C31.6847 202.681 31.5181 202.641 31.355 202.597L102.189 180.255C103.54 179.816 106.297 180.142 108.345 180.983C108.91 181.197 109.437 181.5 109.905 181.882L147.344 214.79L149.138 216.366L165.712 230.937Z" fill="#D2D2D2"/>
<path d="M207.943 239.841L92.1656 215.431L116.837 209.556L118.613 209.132L150.762 201.474C152.87 200.972 157.492 201.888 159.579 203.154C159.719 203.24 159.847 203.327 159.964 203.414L207.943 239.841Z" fill="#D2D2D2"/>
<path d="M220.052 252.19L12.7657 208.488C9.61338 207.819 6.85513 205.927 5.09608 203.225C3.33703 200.523 2.72085 197.233 3.38271 194.076L26.7319 83.3277C27.4008 80.1723 29.2929 77.4108 31.993 75.6491C34.6931 73.8874 37.9807 73.2694 41.1345 73.9306L248.421 117.633C251.573 118.301 254.331 120.194 256.09 122.896C257.849 125.598 258.466 128.888 257.804 132.045L234.455 242.793C233.786 245.948 231.893 248.71 229.193 250.472C226.493 252.233 223.206 252.851 220.052 252.19ZM40.9824 74.6521C38.0197 74.031 34.9314 74.6116 32.395 76.2665C29.8585 77.9214 28.0811 80.5155 27.4526 83.4797L4.10349 194.228C3.48176 197.193 4.0606 200.284 5.71303 202.822C7.36547 205.36 9.95655 207.138 12.9178 207.766L220.204 251.469C223.167 252.09 226.255 251.509 228.791 249.854C231.328 248.199 233.105 245.605 233.734 242.641L257.083 131.893C257.705 128.927 257.126 125.836 255.473 123.298C253.821 120.76 251.23 118.982 248.269 118.354L40.9824 74.6521Z" fill="#3F3D56"/>
<path d="M221.877 243.532L14.591 199.83C13.7313 199.648 12.9791 199.131 12.4993 198.394C12.0196 197.658 11.8515 196.76 12.032 195.899L35.3812 85.1512C35.5636 84.2907 36.0797 83.5375 36.816 83.0571C37.5524 82.5766 38.449 82.4081 39.3092 82.5884L246.595 126.291C247.455 126.473 248.207 126.989 248.687 127.726C249.167 128.463 249.335 129.36 249.154 130.221L225.805 240.969C225.623 241.83 225.107 242.583 224.37 243.063C223.634 243.544 222.737 243.712 221.877 243.532ZM39.1571 83.3099C38.4881 83.1696 37.7907 83.3007 37.2179 83.6744C36.6452 84.0481 36.2439 84.6339 36.1019 85.3032L12.7528 196.051C12.6124 196.721 12.7431 197.419 13.1162 197.992C13.4894 198.565 14.0745 198.967 14.7431 199.108L222.029 242.811C222.698 242.951 223.396 242.82 223.968 242.446C224.541 242.072 224.942 241.487 225.084 240.817L248.434 130.069C248.574 129.4 248.443 128.702 248.07 128.129C247.697 127.555 247.112 127.154 246.443 127.012L39.1571 83.3099Z" fill="#D2D2D2"/>
<path d="M196.135 136.825C208.456 139.422 220.552 131.53 223.153 119.197C225.753 106.864 217.873 94.7602 205.552 92.1626C193.231 89.5649 181.134 97.4571 178.534 109.79C175.934 122.123 183.814 134.227 196.135 136.825Z" fill="#FF6584"/>
<path d="M193.029 197.763C208.634 201.053 224.626 187.87 228.748 168.318C232.871 148.766 223.562 130.249 207.957 126.959C192.351 123.669 176.359 136.852 172.237 156.404C168.115 175.956 177.424 194.473 193.029 197.763Z" fill="#FFF6CC"/>
<path d="M202.071 155.259L202.149 155.275L186.64 235.757L183.69 235.135L202.071 155.259Z" fill="#D2D2D2"/>
<path d="M195.698 209.361C195.75 209.544 195.727 209.739 195.635 209.905C195.543 210.07 195.389 210.192 195.206 210.244L190.704 211.526L190.314 210.151L194.816 208.87C194.999 208.818 195.194 208.84 195.359 208.933C195.525 209.025 195.647 209.179 195.698 209.361Z" fill="#D2D2D2"/>
<path d="M111.795 180.637C127.4 183.927 143.392 170.744 147.514 151.192C151.637 131.639 142.328 113.122 126.723 109.832C111.117 106.542 95.1252 119.725 91.003 139.277C86.8808 158.829 96.1896 177.347 111.795 180.637Z" fill="#FFF6CC"/>
<path d="M114.185 193.561C114.133 193.378 114.011 193.224 113.846 193.132C113.68 193.04 113.485 193.017 113.303 193.069L110.159 193.963L120.915 138.148L120.837 138.132L102.456 218.009L105.406 218.631L109.856 195.535L113.693 194.444C113.875 194.392 114.029 194.269 114.121 194.104C114.214 193.938 114.236 193.743 114.185 193.561Z" fill="#D2D2D2"/>
<path d="M176.978 72.1907C196.752 76.3596 204.961 117.042 199.737 141.817C194.514 166.592 174.25 183.296 154.477 179.127C134.703 174.958 122.908 151.495 128.132 126.72C133.355 101.946 157.205 68.0219 176.978 72.1907Z" fill="#FFD100"/>
<path d="M157.581 195.142C157.549 195.028 157.494 194.921 157.42 194.828C157.347 194.735 157.255 194.657 157.152 194.599C157.048 194.541 156.934 194.504 156.816 194.491C156.698 194.477 156.578 194.487 156.464 194.519L152.481 195.652L166.109 124.929L166.011 124.908L142.72 226.121L146.458 226.909L152.097 197.644L156.958 196.261C157.072 196.229 157.179 196.174 157.272 196.1C157.366 196.026 157.443 195.935 157.501 195.831C157.559 195.727 157.596 195.613 157.61 195.495C157.623 195.376 157.614 195.257 157.581 195.142Z" fill="#3F3D56"/>
</g>
<defs>
<clipPath id="clip0_133_609">
<rect width="281.454" height="211.09" fill="white" transform="translate(43.5471) rotate(11.9054)"/>
</clipPath>
</defs>
</svg>
