<svg width="264" height="258" viewBox="0 0 264 258" fill="none" xmlns="http://www.w3.org/2000/svg">
<g clip-path="url(#clip0_133_674)">
<path d="M209.859 172.224L209.823 172.248L152.74 209.591L107.985 252.537C106.816 253.658 105.25 254.269 103.63 254.235C102.01 254.2 100.47 253.524 99.3474 252.354C99.2168 252.217 99.0926 252.075 98.975 251.928L7.43047 136.862C6.4761 135.673 6.00272 134.169 6.10406 132.648C6.2054 131.127 6.87407 129.7 7.97768 128.649L53.5518 84.9177L53.5884 84.8939L110.671 47.5507L155.426 4.60467C156.595 3.48337 158.161 2.87275 159.781 2.90714C161.401 2.94154 162.941 3.61813 164.063 4.78807C164.194 4.92428 164.318 5.06631 164.436 5.21416L255.98 120.279C256.935 121.469 257.408 122.973 257.307 124.494C257.205 126.015 256.537 127.442 255.433 128.492L209.859 172.224Z" fill="#FFD100"/>
<path d="M107.957 111.146C91.7007 111.831 75.2169 113.331 58.9665 115.603L58.151 115.717L75.7594 137.85L109.4 111.086L107.957 111.146ZM75.9091 136.529L59.9122 116.422C75.3884 114.282 91.0674 112.845 106.554 112.148L75.9091 136.529ZM196.213 115.206C188.08 114.115 179.915 113.221 171.718 112.525C169.458 112.331 167.197 112.154 164.936 111.993C151.134 111.005 137.355 110.584 123.599 110.731L123.438 110.733L81.0288 144.473L111.913 183.292L197.309 115.353L196.213 115.206ZM112.063 181.972L82.3494 144.624L123.772 111.669C137.038 111.53 150.366 111.925 163.757 112.853C166.081 113.014 168.404 113.192 170.726 113.386C178.837 114.06 186.926 114.929 194.994 115.993L112.063 181.972ZM196.213 115.206C188.08 114.115 179.915 113.221 171.718 112.525C169.458 112.331 167.197 112.154 164.936 111.993C151.134 111.005 137.355 110.584 123.599 110.731L123.438 110.733L81.0288 144.473L111.913 183.292L197.309 115.353L196.213 115.206ZM112.063 181.972L82.3494 144.624L123.772 111.669C137.038 111.53 150.366 111.925 163.757 112.853C166.081 113.014 168.404 113.192 170.726 113.386C178.837 114.06 186.926 114.929 194.994 115.993L112.063 181.972ZM107.957 111.146C91.7007 111.831 75.2169 113.331 58.9665 115.603L58.151 115.717L75.7594 137.85L109.4 111.086L107.957 111.146ZM75.9091 136.529L59.9122 116.422C75.3884 114.282 91.0674 112.845 106.554 112.148L75.9091 136.529ZM107.957 111.146C91.7007 111.831 75.2169 113.331 58.9665 115.603L58.151 115.717L75.7594 137.85L109.4 111.086L107.957 111.146ZM75.9091 136.529L59.9122 116.422C75.3884 114.282 91.0674 112.845 106.554 112.148L75.9091 136.529ZM196.213 115.206C188.08 114.115 179.915 113.221 171.718 112.525C169.458 112.331 167.197 112.154 164.936 111.993C151.134 111.005 137.355 110.584 123.599 110.731L123.438 110.733L81.0288 144.473L111.913 183.292L197.309 115.353L196.213 115.206ZM112.063 181.972L82.3494 144.624L123.772 111.669C137.038 111.53 150.366 111.925 163.757 112.853C166.081 113.014 168.404 113.192 170.726 113.386C178.837 114.06 186.926 114.929 194.994 115.993L112.063 181.972ZM80.7961 218.864L81.3816 219.6L110.417 196.5L118.906 207.171L89.8712 230.271L90.4567 231.007L120.227 207.322L110.566 195.18L80.7961 218.864ZM132.112 208.682L138.045 216.138L138.726 215.485L133.433 208.833L246.647 118.761L246.061 118.025L132.112 208.682ZM231.717 99.9951L231.131 99.2592L117.183 189.916L126.843 202.058L240.792 111.402L240.206 110.666L126.993 200.737L118.503 190.067L231.717 99.9951ZM120.469 101.078C97.7005 101.408 74.9902 103.434 52.5263 107.138L46.5982 99.6872L45.9172 100.34L51.8911 107.849L52.9529 108.022C75.3347 104.344 97.9605 102.336 120.643 102.014L120.804 102.013L189.708 47.1932L189.123 46.4573L120.469 101.078ZM67.8224 142.963L38.7875 166.062L39.373 166.798L69.143 143.114L39.7897 106.219L39.1087 106.871L67.8224 142.963ZM194.978 53.8165L134.403 102.009L135.713 102.03C148.059 102.24 160.565 102.929 173.232 104.098C175.032 104.264 176.836 104.441 178.642 104.628C187.622 105.55 196.632 106.712 205.672 108.113L206.564 107.989L225.862 92.636L225.277 91.9001L206.025 107.217C197.079 105.826 188.149 104.668 179.235 103.745C177.452 103.559 175.67 103.383 173.89 103.217C161.485 102.058 149.2 101.357 137.036 101.116L195.563 54.5524L194.978 53.8165ZM95.726 237.63L96.3115 238.366L125.346 215.266L131.236 222.67L131.917 222.017L125.496 213.945L95.726 237.63ZM44.6424 173.422L45.2279 174.158L74.2628 151.058L103.976 188.405L74.9413 211.505L75.5268 212.241L105.297 188.556L74.4124 149.737L44.6424 173.422ZM107.957 111.146C91.7007 111.831 75.2169 113.331 58.9665 115.603L58.151 115.717L75.7594 137.85L109.4 111.086L107.957 111.146ZM75.9091 136.529L59.9122 116.422C75.3884 114.282 91.0674 112.845 106.554 112.148L75.9091 136.529ZM196.213 115.206C188.08 114.115 179.915 113.221 171.718 112.525C169.458 112.331 167.197 112.154 164.936 111.993C151.134 111.005 137.355 110.584 123.599 110.731L123.438 110.733L81.0288 144.473L111.913 183.292L197.309 115.353L196.213 115.206ZM112.063 181.972L82.3494 144.624L123.772 111.669C137.038 111.53 150.366 111.925 163.757 112.853C166.081 113.014 168.404 113.192 170.726 113.386C178.837 114.06 186.926 114.929 194.994 115.993L112.063 181.972ZM107.957 111.146C91.7007 111.831 75.2169 113.331 58.9665 115.603L58.151 115.717L75.7594 137.85L109.4 111.086L107.957 111.146ZM75.9091 136.529L59.9122 116.422C75.3884 114.282 91.0674 112.845 106.554 112.148L75.9091 136.529ZM196.213 115.206C188.08 114.115 179.915 113.221 171.718 112.525C169.458 112.331 167.197 112.154 164.936 111.993C151.134 111.005 137.355 110.584 123.599 110.731L123.438 110.733L81.0288 144.473L111.913 183.292L197.309 115.353L196.213 115.206ZM112.063 181.972L82.3494 144.624L123.772 111.669C137.038 111.53 150.366 111.925 163.757 112.853C166.081 113.014 168.404 113.192 170.726 113.386C178.837 114.06 186.926 114.929 194.994 115.993L112.063 181.972Z" fill="#202020"/>
<path d="M120.624 110.637C128.038 119.956 127.698 154.126 127.698 154.126C127.698 154.126 94.3261 146.776 86.912 137.458C83.3517 132.982 81.713 127.278 82.3566 121.598C83.0002 115.919 85.8732 110.73 90.3437 107.174C94.8141 103.617 100.516 101.984 106.195 102.633C111.873 103.283 117.064 106.162 120.624 110.637Z" fill="#FFF6CC"/>
<path d="M110.89 117.183C112.104 118.708 112.838 120.559 113.001 122.501C113.163 124.444 112.747 126.39 111.803 128.094C110.859 129.798 109.432 131.183 107.7 132.075C105.969 132.966 104.011 133.324 102.075 133.103C100.139 132.881 98.312 132.091 96.8242 130.831C95.3365 129.571 94.2552 127.899 93.717 126.025C93.1789 124.152 93.2081 122.161 93.8009 120.306C94.3938 118.45 95.5237 116.812 97.0477 115.6C98.0594 114.794 99.22 114.196 100.463 113.839C101.707 113.483 103.008 113.375 104.294 113.522C105.58 113.669 106.824 114.068 107.956 114.696C109.087 115.324 110.085 116.169 110.89 117.183Z" fill="#202020"/>
<path d="M137.387 166.304C139.897 164.307 140.311 160.652 138.312 158.14C136.314 155.628 132.659 155.21 130.15 157.207C127.64 159.203 127.226 162.858 129.225 165.37C131.223 167.882 134.878 168.3 137.387 166.304Z" fill="#FFF6CC"/>
<path d="M131.876 70.0192C135.586 67.0673 136.198 61.6636 133.244 57.9495C130.289 54.2354 124.886 53.6175 121.175 56.5693C117.465 59.5211 116.853 64.9249 119.808 68.639C122.762 72.3531 128.166 72.971 131.876 70.0192Z" fill="#FF6584"/>
<path d="M164.08 67.2575L131.124 93.4771C131.083 93.5105 131.039 93.54 130.993 93.5654L125.077 54.1381C125.039 53.8941 125.065 53.6442 125.155 53.414C125.244 53.1838 125.393 52.9815 125.586 52.8278C125.779 52.6741 126.01 52.5745 126.254 52.5392C126.499 52.5038 126.748 52.534 126.977 52.6267L151.867 62.4412L153.059 62.9103L164.08 67.2575Z" fill="#202020"/>
<path opacity="0.2" d="M164.08 67.2574L152.828 76.2095L151.962 63.7833L151.899 62.8886L151.868 62.4411L153.059 62.9102L164.08 67.2574Z" fill="black"/>
<path d="M182.43 52.6585L153.925 75.3363L153.059 62.9102L152.996 62.0154L151.867 45.8223C151.793 44.7609 152.894 43.815 153.926 43.9729C153.996 43.9842 154.065 43.9999 154.132 44.0199L182.43 52.6585Z" fill="#202020"/>
<path d="M214.856 89.0741C216.733 87.5801 217.043 84.8451 215.548 82.9654C214.052 81.0856 211.318 80.7729 209.44 82.2669C207.562 83.7608 207.252 86.4958 208.748 88.3755C210.243 90.2553 212.978 90.568 214.856 89.0741Z" fill="#202020"/>
<path d="M220.632 95.6615L219.935 96.2156L211.689 85.1985L220.632 95.6615Z" fill="#202020"/>
<path d="M213.373 87.1899L213.297 85.5594L213.567 87.4543L213.371 87.3759L213.373 87.1899Z" fill="#202020"/>
<path d="M214.123 88.3005L212.552 87.8601L214.337 88.5487L214.305 88.3401L214.123 88.3005Z" fill="#202020"/>
<path d="M202.589 93.4997C205.363 91.2932 205.82 87.2539 203.612 84.4777C201.403 81.7014 197.364 81.2396 194.591 83.446C191.817 85.6525 191.36 89.6917 193.568 92.468C195.777 95.2442 199.816 95.7061 202.589 93.4997Z" fill="#202020"/>
<path d="M211.12 103.229L210.092 104.047L197.912 87.7758L211.12 103.229Z" fill="#202020"/>
<path d="M200.4 90.7166L200.288 88.3092L200.686 91.1074L200.397 90.9915L200.4 90.7166Z" fill="#202020"/>
<path d="M201.508 92.3573L199.187 91.7068L201.824 92.7238L201.776 92.4157L201.508 92.3573Z" fill="#202020"/>
<path d="M88.6016 189.52C90.4794 188.026 90.7894 185.291 89.2938 183.412C87.7983 181.532 85.0637 181.219 83.1859 182.713C81.3081 184.207 80.9982 186.942 82.4937 188.822C83.9892 190.702 86.7238 191.014 88.6016 189.52Z" fill="#202020"/>
<path d="M94.3779 196.108L93.6815 196.662L85.4348 185.645L94.3779 196.108Z" fill="#202020"/>
<path d="M87.1193 187.636L87.0432 186.006L87.313 187.901L87.117 187.822L87.1193 187.636Z" fill="#202020"/>
<path d="M87.8694 188.747L86.2979 188.306L88.0835 188.995L88.0511 188.786L87.8694 188.747Z" fill="#202020"/>
<path d="M76.3354 193.946C79.1088 191.739 79.5665 187.7 77.3577 184.924C75.149 182.148 71.1102 181.686 68.3368 183.892C65.5634 186.099 65.1057 190.138 67.3145 192.914C69.5232 195.691 73.562 196.152 76.3354 193.946Z" fill="#202020"/>
<path d="M84.8662 203.675L83.8377 204.493L71.6583 188.222L84.8662 203.675Z" fill="#202020"/>
<path d="M74.1461 191.163L74.0336 188.755L74.4323 191.554L74.1426 191.438L74.1461 191.163Z" fill="#202020"/>
<path d="M75.2539 192.804L72.9331 192.153L75.5701 193.17L75.5225 192.862L75.2539 192.804Z" fill="#202020"/>
</g>
<defs>
<clipPath id="clip0_133_674">
<rect width="204.827" height="165.636" fill="white" transform="translate(0 127.523) rotate(-38.5054)"/>
</clipPath>
</defs>
</svg>
