<svg width="538" height="577" viewBox="0 0 538 577" fill="none" xmlns="http://www.w3.org/2000/svg">
<path fill-rule="evenodd" clip-rule="evenodd" d="M279.442 8.83668C335.101 -12.605 406.611 6.70211 449.537 48.0979C491.454 88.5198 476.373 157.008 491.412 213.249C505.316 265.241 551.362 313.803 534.233 364.825C517.113 415.817 450.225 425.669 408.637 459.807C363.101 497.186 337.345 563.047 279.442 573.974C219.078 585.365 147.539 564.264 109.165 516.32C71.8594 469.712 112.428 399.078 94.0096 342.301C75.6131 285.59 -21.0866 246.699 4.18388 192.697C30.8902 135.626 131.361 185.488 183.773 150.479C232.349 118.032 224.925 29.8383 279.442 8.83668Z" fill="#FFD100"/>
</svg>
