<svg width="325" height="326" viewBox="0 0 325 326" fill="none" xmlns="http://www.w3.org/2000/svg">
<path fill-rule="evenodd" clip-rule="evenodd" d="M180.794 0.207236C218.195 3.22297 243.615 39.2735 266.216 69.2352C283.799 92.5447 284.058 122.591 293.859 150.097C304.078 178.775 327.392 203.315 324.8 233.651C321.901 267.59 310.211 308.302 279.152 322.266C247.608 336.448 214.481 306.217 180.794 298.394C156.962 292.859 134.219 290.35 110.827 283.176C73.7473 271.805 21.5842 278.924 4.20709 244.24C-12.5035 210.887 24.9834 175.281 39.5663 140.943C52.5822 110.295 61.1608 78.1039 84.7442 54.6027C111.463 27.9769 143.201 -2.82394 180.794 0.207236Z" fill="#FFD100"/>
</svg>
