<svg width="438" height="482" viewBox="0 0 438 482" fill="none" xmlns="http://www.w3.org/2000/svg">
<path fill-rule="evenodd" clip-rule="evenodd" d="M206.856 55.9376C255.33 55.1485 291.489 -9.07766 338.893 1.09128C383.443 10.6482 411.928 59.842 426.459 103.046C440.219 143.958 414.594 186.747 415.845 229.894C417.147 274.779 449.063 318.787 433.943 361.065C418.552 404.099 376.734 433.023 335.882 453.48C296.226 473.338 247.294 492.993 206.856 474.782C164.655 455.776 170.257 385.855 131.061 361.237C94.2733 338.133 23.8483 385.738 3.74359 347.217C-16.8449 307.77 53.7998 273.534 62.5103 229.894C68.7873 198.447 43.6326 168.828 45.7369 136.828C48.7456 91.0754 36.3146 25.915 77.2764 5.34988C119.435 -15.8159 159.693 56.7053 206.856 55.9376Z" fill="#FFD100"/>
</svg>
